<svg height="512pt" viewBox="0 0 512 512" width="512pt" xmlns="http://www.w3.org/2000/svg"><path d="m497.003906 481.90625h-15.097656v-30.992188h15c8.28125 0 14.996094-6.714843 14.996094-15 0-13.996093-16.996094-14.996093-16.996094-14.996093v-100.976563c0-8.285156-6.714844-15-15-15h-23.992188v-170.96875c0-8.28125-6.714843-14.996094-15-14.996094h-117.976562v-103.980468c0-8.28125-6.714844-14.996094-14.996094-14.996094h-247.953125c-8.28125 0-14.996093 6.714844-14.996093 14.996094v289.945312h-9.910157c-8.28125 0-14.996093 6.714844-14.996093 14.996094v100.980469h-5.089844c-8.28125 0-14.996094 6.714843-14.996094 14.996093s6.714844 14.996094 14.996094 14.996094h15v30.996094h-15c-8.28125 0-14.996094 6.714844-14.996094 14.996094s6.714844 14.996094 14.996094 14.996094h482.007812c8.28125 0 14.996094-6.714844 14.996094-14.996094s-6.714844-14.996094-14.996094-14.996094zm-303.539062-250.449219c8.28125 0 14.996094-6.714843 14.996094-15v-14.496093h35.492187v102.980468h-100.980469v-102.980468h35.492188v14.496093c0 8.285157 6.714844 15 15 15zm17.496094 219.457031v30.992188h-90.984376v-30.992188zm91.980468 0h88.984375v30.992188h-90.984375v-30.992188zm161.96875-29.996093h-146.972656v-85.980469h58.492188v14.996094c0 8.28125 6.714843 14.996094 14.996093 14.996094s14.996094-6.714844 14.996094-14.996094v-14.996094h58.488281zm-38.992187-115.976563h-151.96875v-155.96875h60.988281v16.996094c0 8.28125 6.714844 14.996094 14.996094 14.996094s14.996094-6.714844 14.996094-14.996094v-16.996094h60.988281zm-350.933594-274.945312h93.984375v14.996094c0 8.28125 6.714844 14.996093 14.996094 14.996093s14.996094-6.714843 14.996094-14.996093v-14.996094h93.984374v88.980468h-33.996093c-8.28125 0-14.996094 6.714844-14.996094 14.996094v37.996094h-115.976563c-8.285156 0-15 6.714844-15 14.996094v117.976562h-37.992187zm-24.90625 304.941406h237.867187v85.980469h-237.867187zm9.910156 146.96875v-30.992188h29.996094v30.992188zm180.964844 0v-30.992188h29.996094v30.992188zm180.964844 0v-30.992188h29.996093v30.992188zm0 0"/></svg>