<?xml version="1.0" encoding="UTF-8"?>
<svg width="200px" height="147px" viewBox="0 0 200 147" version="1.1" xmlns="http://www.w3.org/2000/svg" xmlns:xlink="http://www.w3.org/1999/xlink">
    <!-- Generator: Sketch 52.6 (67491) - http://www.bohemiancoding.com/sketch -->
    <title>Group 3 Copy</title>
    <desc>Created with Sketch.</desc>
    <defs>
        <linearGradient x1="50%" y1="0%" x2="50%" y2="50%" id="linearGradient-1">
            <stop stop-color="#E9B083" offset="0%"></stop>
            <stop stop-color="#FFE6AC" offset="100%"></stop>
        </linearGradient>
        <linearGradient x1="50%" y1="0%" x2="50%" y2="50%" id="linearGradient-2">
            <stop stop-color="#E9B083" offset="0%"></stop>
            <stop stop-color="#FFE6AC" offset="100%"></stop>
        </linearGradient>
    </defs>
    <g id="Page-1" stroke="none" stroke-width="1" fill="none" fill-rule="evenodd">
        <g id="Desktop-HD-Copy-5" transform="translate(-194.000000, -742.000000)" fill-rule="nonzero">
            <g id="Group-3-Copy" transform="translate(194.000000, 747.000000)">
                <rect id="Rectangle" stroke="#414242" stroke-width="9" fill="url(#linearGradient-1)" x="4.5" y="26.3068536" width="191" height="34.6137072" rx="17.3068536"></rect>
                <rect id="Rectangle-Copy-3" stroke="#414242" stroke-width="9" fill="url(#linearGradient-2)" x="4.5" y="64.3130841" width="191" height="34.6137072" rx="17.3068536"></rect>
                <rect id="Rectangle-Copy-4" stroke="#414242" stroke-width="9" fill="url(#linearGradient-2)" x="4.5" y="102.319315" width="191" height="34.6137072" rx="17.3068536"></rect>
                <g id="Group-2" transform="translate(78.504673, 0.000000)">
                    <path d="M43.6137072,21.8068536 C43.6137072,9.76326091 33.8504463,-2.13162821e-14 21.8068536,-2.13162821e-14 C9.76326091,-2.13162821e-14 0,9.76326091 0,21.8068536 C0,33.8504463 43.6137072,33.8504463 43.6137072,21.8068536 Z" id="Oval-Copy-2" stroke="#414242" stroke-width="9" fill="#AFDA52"></path>
                    <g id="Group" transform="translate(9.345794, 9.345794)" fill="#535353">
                        <circle id="Oval-Copy-6" cx="23.9875389" cy="12.7725857" r="1.5576324"></circle>
                        <circle id="Oval-Copy-8" cx="12.7725857" cy="1.5576324" r="1.5576324"></circle>
                        <circle id="Oval-Copy-7" cx="1.5576324" cy="13.3956386" r="1.5576324"></circle>
                    </g>
                    <g id="Group" transform="translate(22.032687, 14.405823) rotate(46.000000) translate(-22.032687, -14.405823) translate(14.867578, 6.929187)" fill="#535353">
                        <circle id="Oval-Copy-8" cx="12.7725857" cy="1.5576324" r="1.5576324"></circle>
                        <circle id="Oval-Copy-7" cx="1.5576324" cy="13.3956386" r="1.5576324"></circle>
                    </g>
                    <path d="M29.2834891,22.1183801 C29.2834891,18.1611996 26.0755605,14.953271 22.1183801,14.953271 C18.1611996,14.953271 14.953271,18.1611996 14.953271,22.1183801 C14.953271,26.0755605 29.2834891,26.0755605 29.2834891,22.1183801 Z" id="Oval-Copy-5" fill="#FFFDF0"></path>
                </g>
                <ellipse id="Oval-Copy-7" fill="#FFFFFF" transform="translate(89.699310, 9.548352) rotate(46.000000) translate(-89.699310, -9.548352) " cx="89.6993097" cy="9.54835243" rx="1" ry="4.36137072"></ellipse>
            </g>
        </g>
    </g>
</svg>