<?xml version="1.0" encoding="UTF-8"?>
<svg width="355px" height="283px" viewBox="0 0 355 283" version="1.1" xmlns="http://www.w3.org/2000/svg" xmlns:xlink="http://www.w3.org/1999/xlink">
    <!-- Generator: Sketch 52.6 (67491) - http://www.bohemiancoding.com/sketch -->
    <title>Artboard Copy 4</title>
    <desc>Created with Sketch.</desc>
    <defs>
        <linearGradient x1="50%" y1="0%" x2="50%" y2="50%" id="linearGradient-1">
            <stop stop-color="#E9B083" offset="0%"></stop>
            <stop stop-color="#FFE6AC" offset="100%"></stop>
        </linearGradient>
        <linearGradient x1="50%" y1="0%" x2="50%" y2="50%" id="linearGradient-2">
            <stop stop-color="#E9B083" offset="0%"></stop>
            <stop stop-color="#FFE6AC" offset="100%"></stop>
        </linearGradient>
    </defs>
    <g id="Artboard-Copy-4" stroke="none" stroke-width="1" fill="none" fill-rule="evenodd">
        <g id="Group-3" transform="translate(17.000000, 36.000000)" fill-rule="nonzero">
            <rect id="Rectangle" stroke="#535353" stroke-width="9" fill="url(#linearGradient-1)" x="4.5" y="39.5" width="312" height="61" rx="26"></rect>
            <rect id="Rectangle-Copy-3" stroke="#535353" stroke-width="9" fill="url(#linearGradient-2)" x="4.5" y="100.5" width="312" height="61" rx="26"></rect>
            <rect id="Rectangle-Copy-4" stroke="#535353" stroke-width="9" fill="url(#linearGradient-2)" x="4.5" y="161.5" width="312" height="61" rx="26"></rect>
            <g id="Group-2" transform="translate(126.000000, 0.000000)">
                <path d="M70,35 C70,15.6700338 54.3299662,-2.13162821e-14 35,-2.13162821e-14 C15.6700338,-2.13162821e-14 0,15.6700338 0,35 C0,54.3299662 70,54.3299662 70,35 Z" id="Oval-Copy-2" stroke="#535353" stroke-width="9" fill="#AFDA52"></path>
                <g id="Group" transform="translate(15.000000, 15.000000)" fill="#535353">
                    <circle id="Oval-Copy-6" cx="38.5" cy="20.5" r="2.5"></circle>
                    <circle id="Oval-Copy-8" cx="20.5" cy="2.5" r="2.5"></circle>
                    <circle id="Oval-Copy-7" cx="2.5" cy="21.5" r="2.5"></circle>
                </g>
                <g id="Group" transform="translate(35.362463, 23.121346) rotate(46.000000) translate(-35.362463, -23.121346) translate(23.862463, 11.121346)" fill="#535353">
                    <circle id="Oval-Copy-8" cx="20.5" cy="2.5" r="2.5"></circle>
                    <circle id="Oval-Copy-7" cx="2.5" cy="21.5" r="2.5"></circle>
                </g>
                <path d="M47,35.5 C47,29.1487254 41.8512746,24 35.5,24 C29.1487254,24 24,29.1487254 24,35.5 C24,41.8512746 47,41.8512746 47,35.5 Z" id="Oval-Copy-5" fill="#FFFDF0"></path>
            </g>
            <ellipse id="Oval-Copy-7" fill="#FFFFFF" transform="translate(143.967392, 15.325106) rotate(46.000000) translate(-143.967392, -15.325106) " cx="143.967392" cy="15.3251057" rx="1" ry="7"></ellipse>
        </g>
    </g>
</svg>